# xmcd
#
# Track frame offsets: 
#        150
#        18508
#        38611
#        63678
#        83315
#        102995
#        124690
#        145358
#        158472
#        184141
#        202331
#        228248
#        250600
#
# Disc length: 3723 seconds
#
# Revision: 0
# Processed by: cddbd v1.5.2PL0 Copyright (c) Steve Scherf et al.
# Submitted via: ExactAudioCopy v0.99pb5
#
DISCID=a50e890d
DTITLE=Lazy Brad Lewis - DownInside
DYEAR=2009
DGENRE=Blues
TTITLE0=Evil
TTITLE1=I Ain't Superstitious
TTITLE2=Late at Nite
TTITLE3=DownInside
TTITLE4=I Can't Give It Away
TTITLE5=Everyday
TTITLE6=You Hate It
TTITLE7=Too Many Roads
TTITLE8=I Got a Thing for You
TTITLE9=As I Went Out One Morning
TTITLE10=Hoo Doo Woman
TTITLE11=Den of Thieves
TTITLE12=Woman and a Wife
EXTD=
EXTT0=
EXTT1=
EXTT2=
EXTT3=
EXTT4=
EXTT5=
EXTT6=
EXTT7=
EXTT8=
EXTT9=
EXTT10=
EXTT11=
EXTT12=
PLAYORDER=
